<?xml version="1.0" encoding="UTF-8"?>
<!DOCTYPE svg PUBLIC "-//W3C//DTD SVG 1.1//EN" "http://www.w3.org/Graphics/SVG/1.1/DTD/svg11.dtd">
<!-- Creator: CorelDRAW X7 -->
<svg xmlns="http://www.w3.org/2000/svg" xml:space="preserve" width="1986px" height="569px" version="1.1" style="shape-rendering:geometricPrecision; text-rendering:geometricPrecision; image-rendering:optimizeQuality; fill-rule:evenodd; clip-rule:evenodd"
viewBox="0 0 1986 569"
 xmlns:xlink="http://www.w3.org/1999/xlink">
 <defs>
  <style type="text/css">
   <![CDATA[
    .fil0 {fill:white}
   ]]>
  </style>
 </defs>
 <g id="Layer_x0020_1">
  <metadata id="CorelCorpID_0Corel-Layer"/>
  <g id="_640438160">
   <path class="fil0" d="M1830 216l53 141 49 -140c0,-2 2,-3 3,-3l48 0 0 0c0,0 1,0 1,1 2,0 2,2 2,4l-80 206c-8,21 -17,35 -28,44 -11,10 -24,14 -41,14 -10,0 -18,-1 -26,-4 -8,-2 -15,-5 -23,-9l0 0c-1,-1 -2,-2 -1,-4l15 -34c0,0 1,0 1,0 0,-2 2,-2 4,-1 4,2 8,4 12,5 5,1 9,2 13,2 6,0 11,-1 15,-5 3,-3 7,-8 10,-15l-83 -199c0,0 0,-1 0,-1 0,-2 2,-4 3,-4l50 0 0 0c1,0 2,1 3,2z"/>
   <path class="fil0" d="M1756 421l-46 0c-2,0 -3,-1 -3,-3l0 -277c0,-2 1,-3 3,-3l46 0c2,0 3,1 3,3l0 277c0,2 -1,3 -3,3z"/>
   <path class="fil0" d="M1625 421l-46 0c-1,0 -3,-1 -3,-3l0 -158 -22 0c-2,0 -3,-1 -3,-3l0 -38c0,-2 1,-3 3,-3l22 0 0 -12c0,-11 2,-21 4,-30 3,-9 8,-16 13,-22 12,-11 27,-16 48,-16 8,0 15,0 21,1 6,1 11,2 17,4 1,0 2,1 2,3l0 39 0 0c0,0 0,0 0,1 -1,1 -2,2 -4,2 -4,-2 -9,-3 -13,-4 -4,-1 -8,-1 -13,-1 -8,0 -14,2 -17,6 -4,5 -6,11 -6,21l0 8 50 0c1,0 3,1 3,3l0 38c0,2 -2,3 -3,3l-50 0 0 158c0,2 -1,3 -3,3z"/>
   <path class="fil0" d="M1529 421l-46 0c-2,0 -4,-1 -4,-3l0 -200c0,-2 2,-4 4,-4l46 0c1,0 3,2 3,4l0 200c0,2 -2,3 -3,3z"/>
   <path class="fil0" d="M1434 422c-7,1 -14,2 -23,2 -18,0 -33,-4 -44,-13 -11,-10 -17,-26 -17,-49l0 -102 -22 0c-2,0 -4,-1 -4,-3l0 -39c0,-2 2,-4 4,-4l22 0 0 -51c0,-2 1,-4 3,-4l46 0c2,0 3,2 3,4l0 51 51 0c1,0 3,2 3,4l0 39c0,2 -2,3 -3,3l-51 0 0 95c0,8 2,14 6,17 3,4 9,5 16,5 4,0 9,0 13,-2 5,-1 9,-2 13,-4 1,-1 1,-1 2,-1 2,0 3,2 3,3l0 38 0 0c0,1 0,2 -1,3 -6,3 -13,6 -20,8z"/>
   <path class="fil0" d="M1169 362c10,10 24,17 41,17 17,0 31,-6 41,-17 10,-11 16,-26 16,-43l0 -1c0,-17 -6,-33 -17,-44 -10,-11 -24,-17 -41,-17 -17,0 -31,6 -41,17 -10,11 -16,26 -16,43l0 1c0,17 6,32 17,44zm118 33c-19,19 -47,31 -78,31 -31,0 -58,-12 -78,-31 -19,-20 -31,-47 -31,-76l0 -1c0,-30 12,-57 32,-77 19,-19 47,-31 78,-31 31,0 58,12 78,31 20,19 31,46 31,76l0 1c0,30 -12,57 -32,77z"/>
   <path class="fil0" d="M924 482l-46 0c-1,0 -3,-2 -3,-4l0 -260c0,-2 2,-4 3,-4l46 0c2,0 4,2 4,4l0 24c6,-8 13,-15 22,-20 12,-7 26,-12 43,-12 25,0 51,11 69,31 16,18 27,44 27,76l0 1c0,32 -11,58 -27,76 -18,20 -44,31 -69,31 -18,0 -32,-4 -43,-11 -9,-5 -16,-11 -22,-18l0 82c0,2 -2,4 -4,4zm18 -121c10,12 25,18 40,18 15,0 29,-6 39,-17 9,-11 15,-26 15,-44l0 -1c0,-18 -6,-33 -16,-43 -10,-11 -23,-18 -38,-18 -15,0 -30,7 -40,18 -9,11 -16,26 -16,43l0 1c0,18 7,33 16,43z"/>
   <path class="fil0" d="M834 402c-18,15 -42,23 -71,23 -21,0 -42,-4 -61,-11 -19,-7 -36,-18 -52,-33l0 0c-2,-1 -2,-3 -1,-4l28 -33c0,0 0,0 0,0 2,-2 4,-2 5,-1 12,11 25,20 38,25 14,6 28,9 44,9 13,0 24,-3 32,-8 7,-6 12,-13 12,-22l0 -1c0,-8 -3,-15 -11,-20 -8,-7 -23,-12 -47,-17l0 0 0 0c-29,-7 -51,-15 -67,-27 -15,-13 -24,-30 -24,-56l0 0c0,-24 10,-44 27,-58 16,-14 40,-23 67,-23 20,0 37,3 54,9 16,6 31,14 44,25l0 0c2,1 2,3 1,5l-25 35c0,0 0,0 0,0 -1,2 -3,2 -5,1 -11,-9 -23,-16 -35,-20 -11,-5 -23,-7 -35,-7 -12,0 -22,3 -29,8 -7,5 -11,12 -11,20l0 1c0,9 3,16 11,21 9,7 25,12 50,18l0 0 0 0c29,7 50,15 65,28 15,13 23,30 23,53l0 0c0,26 -10,46 -27,60z"/>
   <path class="fil0" d="M1506 131c8,0 16,3 22,9 5,6 9,14 9,22 0,9 -4,17 -9,22 -6,6 -14,10 -22,10 -9,0 -17,-4 -23,-10 -5,-5 -9,-13 -9,-22 0,-8 4,-16 9,-22 6,-6 14,-9 23,-9z"/>
   <path class="fil0" d="M452 252c-92,-54 -243,-59 -330,-33 -14,5 -29,-3 -33,-17 -4,-14 4,-29 18,-34 100,-30 267,-24 372,38 13,8 17,24 9,37 -7,13 -24,17 -36,9l0 0zm-3 81c-7,10 -20,14 -31,7 -76,-47 -192,-60 -283,-33 -11,4 -24,-3 -27,-15 -4,-11 3,-24 15,-27 103,-32 231,-17 319,37 10,7 13,20 7,31l0 0zm-35 77c-5,9 -16,11 -24,6 -67,-41 -151,-50 -250,-27 -9,2 -19,-4 -21,-14 -2,-9 4,-19 13,-21 109,-25 201,-14 276,32 9,5 11,16 6,24l0 0zm-130 -410c-157,0 -284,128 -284,284 0,158 127,285 284,285 157,0 284,-127 284,-285 0,-157 -127,-284 -284,-284l0 0 0 0z"/>
  </g>
 </g>
</svg>
